# xmcd
#
# Track frame offsets:
#	150
#	11565
#	26795
#	42050
#	56190
#	66720
#	79805
#	96315
#	108910
#	121035
#	137435
#	157390
#	174885
#
# Disc length: 2524 seconds
#
# Revision: 0
# Processed by: cddbd v1.5.1PL0 Copyright (c) Steve Scherf et al.
# Submitted via: audiograbber 1.83.01
#
DISCID=ae09da0d
DTITLE=Richard Dobson with Thomm Jutz - Doppelgaenger
DYEAR=2002
DGENRE=Country
TTITLE0=Woody Knows Nothing
TTITLE1=Small Town Hero
TTITLE2=Forever, For Always, For Certain
TTITLE3=The Boll Weevil Song
TTITLE4=I Ain't Got No Home
TTITLE5=Uncertain Texas
TTITLE6=No Blue Song
TTITLE7=Woody Went Down In The Deep Hold
TTITLE8=Jesus Take Me Fishing
TTITLE9=Pastures Of Plenty
TTITLE10=Across The Wide Missouri
TTITLE11=So Have I
TTITLE12=May You Glide Like A River - The Birthday Song
EXTD=
EXTT0=
EXTT1=
EXTT2=
EXTT3=
EXTT4=
EXTT5=
EXTT6=
EXTT7=
EXTT8=
EXTT9=
EXTT10=
EXTT11=
EXTT12=
PLAYORDER=
